<?xml version="1.0" encoding="UTF-8"?>
<!-- Generated by Pixelmator Pro 4.0 -->
<svg width="1000" height="1000" viewBox="0 0 1000 1000" xmlns="http://www.w3.org/2000/svg">
    <path id="Color-Fill" fill="#f27b10" stroke="none" d="M 0 0 L 1000 0 L 1000 1000 L 0 1000 Z"/>
    <path id="Triangle" fill="#ffffff" fill-rule="evenodd" stroke="none" d="M 210.3116 130.643372 L 351.259766 926.158936 L 969.266113 407.590088 Z"/>
    <path id="Triangle-copy" fill="#f27b10" fill-rule="evenodd" stroke="none" d="M 228.926544 152.070313 L 361.488556 900.254272 L 942.724792 412.539185 Z"/>
    <text id="HLSL-TC57" xml:space="preserve"><tspan x="338" y="476" font-family="Roboto Flex" font-size="144" font-weight="700" fill="#ffffff" xml:space="preserve">HLSL</tspan><tspan x="338" y="629" font-family="Roboto Flex" font-size="144" font-weight="700" fill="#ffffff" xml:space="preserve">TC57</tspan></text>
    <path id="Rectangle" fill="#ffffff" fill-rule="evenodd" stroke="none" d="M 352 927 L 362 927 L 362 917 L 352 917 Z"/>
    <path id="Rectangle-copy" fill="#ffffff" fill-rule="evenodd" stroke="none" d="M 362 919 L 372 919 L 372 909 L 362 909 Z"/>
    <path id="Rectangle-copy-2" fill="#ffffff" fill-rule="evenodd" stroke="none" d="M 371 911 L 381 911 L 381 901 L 371 901 Z"/>
    <path id="Rectangle-copy-3" fill="#ffffff" fill-rule="evenodd" stroke="none" d="M 381 903 L 391 903 L 391 893 L 381 893 Z"/>
    <path id="Rectangle-copy-4" fill="#ffffff" fill-rule="evenodd" stroke="none" d="M 390 895 L 400 895 L 400 885 L 390 885 Z"/>
    <path id="Rectangle-copy-9" fill="#ffffff" fill-rule="evenodd" stroke="none" d="M 400 887 L 410 887 L 410 877 L 400 877 Z"/>
    <path id="Rectangle-copy-8" fill="#ffffff" fill-rule="evenodd" stroke="none" d="M 410 879 L 420 879 L 420 869 L 410 869 Z"/>
    <path id="Rectangle-copy-7" fill="#ffffff" fill-rule="evenodd" stroke="none" d="M 419 871 L 429 871 L 429 861 L 419 861 Z"/>
    <path id="Rectangle-copy-6" fill="#ffffff" fill-rule="evenodd" stroke="none" d="M 429 863 L 439 863 L 439 853 L 429 853 Z"/>
    <path id="Rectangle-copy-5" fill="#ffffff" fill-rule="evenodd" stroke="none" d="M 438 855 L 448 855 L 448 845 L 438 845 Z"/>
    <path id="Rectangle-copy-19" fill="#ffffff" fill-rule="evenodd" stroke="none" d="M 448 846 L 458 846 L 458 836 L 448 836 Z"/>
    <path id="Rectangle-copy-18" fill="#ffffff" fill-rule="evenodd" stroke="none" d="M 458 838 L 468 838 L 468 828 L 458 828 Z"/>
    <path id="Rectangle-copy-17" fill="#ffffff" fill-rule="evenodd" stroke="none" d="M 467 830 L 477 830 L 477 820 L 467 820 Z"/>
    <path id="Rectangle-copy-16" fill="#ffffff" fill-rule="evenodd" stroke="none" d="M 477 822 L 487 822 L 487 812 L 477 812 Z"/>
    <path id="Rectangle-copy-15" fill="#ffffff" fill-rule="evenodd" stroke="none" d="M 486 814 L 496 814 L 496 804 L 486 804 Z"/>
    <path id="Rectangle-copy-14" fill="#ffffff" fill-rule="evenodd" stroke="none" d="M 496 806 L 506 806 L 506 796 L 496 796 Z"/>
    <path id="Rectangle-copy-13" fill="#ffffff" fill-rule="evenodd" stroke="none" d="M 506 798 L 516 798 L 516 788 L 506 788 Z"/>
    <path id="Rectangle-copy-12" fill="#ffffff" fill-rule="evenodd" stroke="none" d="M 515 790 L 525 790 L 525 780 L 515 780 Z"/>
    <path id="Rectangle-copy-11" fill="#ffffff" fill-rule="evenodd" stroke="none" d="M 525 782 L 535 782 L 535 772 L 525 772 Z"/>
    <path id="Rectangle-copy-10" fill="#ffffff" fill-rule="evenodd" stroke="none" d="M 534 774 L 544 774 L 544 764 L 534 764 Z"/>
    <path id="Rectangle-copy-39" fill="#ffffff" fill-rule="evenodd" stroke="none" d="M 544 766 L 554 766 L 554 756 L 544 756 Z"/>
    <path id="Rectangle-copy-38" fill="#ffffff" fill-rule="evenodd" stroke="none" d="M 554 758 L 564 758 L 564 748 L 554 748 Z"/>
    <path id="Rectangle-copy-37" fill="#ffffff" fill-rule="evenodd" stroke="none" d="M 563 750 L 573 750 L 573 740 L 563 740 Z"/>
    <path id="Rectangle-copy-36" fill="#ffffff" fill-rule="evenodd" stroke="none" d="M 573 742 L 583 742 L 583 732 L 573 732 Z"/>
    <path id="Rectangle-copy-35" fill="#ffffff" fill-rule="evenodd" stroke="none" d="M 582 734 L 592 734 L 592 724 L 582 724 Z"/>
    <path id="Rectangle-copy-34" fill="#ffffff" fill-rule="evenodd" stroke="none" d="M 592 726 L 602 726 L 602 716 L 592 716 Z"/>
    <path id="Rectangle-copy-33" fill="#ffffff" fill-rule="evenodd" stroke="none" d="M 602 718 L 612 718 L 612 708 L 602 708 Z"/>
    <path id="Rectangle-copy-32" fill="#ffffff" fill-rule="evenodd" stroke="none" d="M 611 710 L 621 710 L 621 700 L 611 700 Z"/>
    <path id="Rectangle-copy-31" fill="#ffffff" fill-rule="evenodd" stroke="none" d="M 621 702 L 631 702 L 631 692 L 621 692 Z"/>
    <path id="Rectangle-copy-30" fill="#ffffff" fill-rule="evenodd" stroke="none" d="M 630 694 L 640 694 L 640 684 L 630 684 Z"/>
    <path id="Rectangle-copy-29" fill="#ffffff" fill-rule="evenodd" stroke="none" d="M 640 685 L 650 685 L 650 675 L 640 675 Z"/>
    <path id="Rectangle-copy-28" fill="#ffffff" fill-rule="evenodd" stroke="none" d="M 650 677 L 660 677 L 660 667 L 650 667 Z"/>
    <path id="Rectangle-copy-27" fill="#ffffff" fill-rule="evenodd" stroke="none" d="M 659 669 L 669 669 L 669 659 L 659 659 Z"/>
    <path id="Rectangle-copy-26" fill="#ffffff" fill-rule="evenodd" stroke="none" d="M 669 661 L 679 661 L 679 651 L 669 651 Z"/>
    <path id="Rectangle-copy-25" fill="#ffffff" fill-rule="evenodd" stroke="none" d="M 678 653 L 688 653 L 688 643 L 678 643 Z"/>
    <path id="Rectangle-copy-24" fill="#ffffff" fill-rule="evenodd" stroke="none" d="M 688 645 L 698 645 L 698 635 L 688 635 Z"/>
    <path id="Rectangle-copy-23" fill="#ffffff" fill-rule="evenodd" stroke="none" d="M 698 637 L 708 637 L 708 627 L 698 627 Z"/>
    <path id="Rectangle-copy-22" fill="#ffffff" fill-rule="evenodd" stroke="none" d="M 707 629 L 717 629 L 717 619 L 707 619 Z"/>
    <path id="Rectangle-copy-21" fill="#ffffff" fill-rule="evenodd" stroke="none" d="M 717 621 L 727 621 L 727 611 L 717 611 Z"/>
    <path id="Rectangle-copy-20" fill="#ffffff" fill-rule="evenodd" stroke="none" d="M 726 613 L 736 613 L 736 603 L 726 603 Z"/>
    <path id="Rectangle-copy-57" fill="#ffffff" fill-rule="evenodd" stroke="none" d="M 736 605 L 746 605 L 746 595 L 736 595 Z"/>
    <path id="Rectangle-copy-56" fill="#ffffff" fill-rule="evenodd" stroke="none" d="M 746 597 L 756 597 L 756 587 L 746 587 Z"/>
    <path id="Rectangle-copy-55" fill="#ffffff" fill-rule="evenodd" stroke="none" d="M 755 589 L 765 589 L 765 579 L 755 579 Z"/>
    <path id="Rectangle-copy-54" fill="#ffffff" fill-rule="evenodd" stroke="none" d="M 765 581 L 775 581 L 775 571 L 765 571 Z"/>
    <path id="Rectangle-copy-53" fill="#ffffff" fill-rule="evenodd" stroke="none" d="M 775 573 L 785 573 L 785 563 L 775 563 Z"/>
    <path id="Rectangle-copy-52" fill="#ffffff" fill-rule="evenodd" stroke="none" d="M 784 565 L 794 565 L 794 555 L 784 555 Z"/>
    <path id="Rectangle-copy-51" fill="#ffffff" fill-rule="evenodd" stroke="none" d="M 794 557 L 804 557 L 804 547 L 794 547 Z"/>
    <path id="Rectangle-copy-50" fill="#ffffff" fill-rule="evenodd" stroke="none" d="M 803 549 L 813 549 L 813 539 L 803 539 Z"/>
    <path id="Rectangle-copy-49" fill="#ffffff" fill-rule="evenodd" stroke="none" d="M 813 540 L 823 540 L 823 530 L 813 530 Z"/>
    <path id="Rectangle-copy-48" fill="#ffffff" fill-rule="evenodd" stroke="none" d="M 823 532 L 833 532 L 833 522 L 823 522 Z"/>
    <path id="Rectangle-copy-47" fill="#ffffff" fill-rule="evenodd" stroke="none" d="M 832 524 L 842 524 L 842 514 L 832 514 Z"/>
    <path id="Rectangle-copy-46" fill="#ffffff" fill-rule="evenodd" stroke="none" d="M 842 516 L 852 516 L 852 506 L 842 506 Z"/>
    <path id="Rectangle-copy-45" fill="#ffffff" fill-rule="evenodd" stroke="none" d="M 851 508 L 861 508 L 861 498 L 851 498 Z"/>
    <path id="Rectangle-copy-44" fill="#ffffff" fill-rule="evenodd" stroke="none" d="M 861 500 L 871 500 L 871 490 L 861 490 Z"/>
    <path id="Rectangle-copy-43" fill="#ffffff" fill-rule="evenodd" stroke="none" d="M 871 492 L 881 492 L 881 482 L 871 482 Z"/>
    <path id="Rectangle-copy-42" fill="#ffffff" fill-rule="evenodd" stroke="none" d="M 880 484 L 890 484 L 890 474 L 880 474 Z"/>
    <path id="Rectangle-copy-41" fill="#ffffff" fill-rule="evenodd" stroke="none" d="M 890 476 L 900 476 L 900 466 L 890 466 Z"/>
    <path id="Rectangle-copy-40" fill="#ffffff" fill-rule="evenodd" stroke="none" d="M 899 468 L 909 468 L 909 458 L 899 458 Z"/>
    <path id="Rectangle-copy-66" fill="#ffffff" fill-rule="evenodd" stroke="none" d="M 909 460 L 919 460 L 919 450 L 909 450 Z"/>
    <path id="Rectangle-copy-65" fill="#ffffff" fill-rule="evenodd" stroke="none" d="M 918 452 L 928 452 L 928 442 L 918 442 Z"/>
    <path id="Rectangle-copy-64" fill="#ffffff" fill-rule="evenodd" stroke="none" d="M 928 444 L 938 444 L 938 434 L 928 434 Z"/>
    <path id="Rectangle-copy-63" fill="#ffffff" fill-rule="evenodd" stroke="none" d="M 939 435 L 949 435 L 949 425 L 939 425 Z"/>
    <path id="Rectangle-copy-62" fill="#ffffff" fill-rule="evenodd" stroke="none" d="M 949 426 L 959 426 L 959 416 L 949 416 Z"/>
    <path id="Rectangle-copy-95" fill="#ffffff" fill-rule="evenodd" stroke="none" d="M 362 936 L 372 936 L 372 926 L 362 926 Z"/>
    <path id="Rectangle-copy-94" fill="#ffffff" fill-rule="evenodd" stroke="none" d="M 381 920 L 391 920 L 391 910 L 381 910 Z"/>
    <path id="Rectangle-copy-93" fill="#ffffff" fill-rule="evenodd" stroke="none" d="M 400 904 L 410 904 L 410 894 L 400 894 Z"/>
    <path id="Rectangle-copy-92" fill="#ffffff" fill-rule="evenodd" stroke="none" d="M 420 888 L 430 888 L 430 878 L 420 878 Z"/>
    <path id="Rectangle-copy-91" fill="#ffffff" fill-rule="evenodd" stroke="none" d="M 439 872 L 449 872 L 449 862 L 439 862 Z"/>
    <path id="Rectangle-copy-90" fill="#ffffff" fill-rule="evenodd" stroke="none" d="M 458 855 L 468 855 L 468 845 L 458 845 Z"/>
    <path id="Rectangle-copy-89" fill="#ffffff" fill-rule="evenodd" stroke="none" d="M 477 839 L 487 839 L 487 829 L 477 829 Z"/>
    <path id="Rectangle-copy-88" fill="#ffffff" fill-rule="evenodd" stroke="none" d="M 496 823 L 506 823 L 506 813 L 496 813 Z"/>
    <path id="Rectangle-copy-87" fill="#ffffff" fill-rule="evenodd" stroke="none" d="M 516 807 L 526 807 L 526 797 L 516 797 Z"/>
    <path id="Rectangle-copy-86" fill="#ffffff" fill-rule="evenodd" stroke="none" d="M 535 791 L 545 791 L 545 781 L 535 781 Z"/>
    <path id="Rectangle-copy-85" fill="#ffffff" fill-rule="evenodd" stroke="none" d="M 554 775 L 564 775 L 564 765 L 554 765 Z"/>
    <path id="Rectangle-copy-84" fill="#ffffff" fill-rule="evenodd" stroke="none" d="M 573 759 L 583 759 L 583 749 L 573 749 Z"/>
    <path id="Rectangle-copy-83" fill="#ffffff" fill-rule="evenodd" stroke="none" d="M 592 743 L 602 743 L 602 733 L 592 733 Z"/>
    <path id="Rectangle-copy-82" fill="#ffffff" fill-rule="evenodd" stroke="none" d="M 612 727 L 622 727 L 622 717 L 612 717 Z"/>
    <path id="Rectangle-copy-81" fill="#ffffff" fill-rule="evenodd" stroke="none" d="M 631 711 L 641 711 L 641 701 L 631 701 Z"/>
    <path id="Rectangle-copy-80" fill="#ffffff" fill-rule="evenodd" stroke="none" d="M 650 694 L 660 694 L 660 684 L 650 684 Z"/>
    <path id="Rectangle-copy-79" fill="#ffffff" fill-rule="evenodd" stroke="none" d="M 669 678 L 679 678 L 679 668 L 669 668 Z"/>
    <path id="Rectangle-copy-78" fill="#ffffff" fill-rule="evenodd" stroke="none" d="M 688 662 L 698 662 L 698 652 L 688 652 Z"/>
    <path id="Rectangle-copy-77" fill="#ffffff" fill-rule="evenodd" stroke="none" d="M 708 646 L 718 646 L 718 636 L 708 636 Z"/>
    <path id="Rectangle-copy-76" fill="#ffffff" fill-rule="evenodd" stroke="none" d="M 727 630 L 737 630 L 737 620 L 727 620 Z"/>
    <path id="Rectangle-copy-75" fill="#ffffff" fill-rule="evenodd" stroke="none" d="M 746 614 L 756 614 L 756 604 L 746 604 Z"/>
    <path id="Rectangle-copy-74" fill="#ffffff" fill-rule="evenodd" stroke="none" d="M 765 598 L 775 598 L 775 588 L 765 588 Z"/>
    <path id="Rectangle-copy-73" fill="#ffffff" fill-rule="evenodd" stroke="none" d="M 785 582 L 795 582 L 795 572 L 785 572 Z"/>
    <path id="Rectangle-copy-72" fill="#ffffff" fill-rule="evenodd" stroke="none" d="M 804 566 L 814 566 L 814 556 L 804 556 Z"/>
    <path id="Rectangle-copy-71" fill="#ffffff" fill-rule="evenodd" stroke="none" d="M 823 549 L 833 549 L 833 539 L 823 539 Z"/>
    <path id="Rectangle-copy-70" fill="#ffffff" fill-rule="evenodd" stroke="none" d="M 842 533 L 852 533 L 852 523 L 842 523 Z"/>
    <path id="Rectangle-copy-60" fill="#ffffff" fill-rule="evenodd" stroke="none" d="M 861 517 L 871 517 L 871 507 L 861 507 Z"/>
    <path id="Rectangle-copy-59" fill="#ffffff" fill-rule="evenodd" stroke="none" d="M 881 501 L 891 501 L 891 491 L 881 491 Z"/>
    <path id="Rectangle-copy-58" fill="#ffffff" fill-rule="evenodd" stroke="none" d="M 900 485 L 910 485 L 910 475 L 900 475 Z"/>
    <path id="Rectangle-copy-69" fill="#ffffff" fill-rule="evenodd" stroke="none" d="M 919 469 L 929 469 L 929 459 L 919 459 Z"/>
    <path id="Rectangle-copy-68" fill="#ffffff" fill-rule="evenodd" stroke="none" d="M 938 453 L 948 453 L 948 443 L 938 443 Z"/>
    <path id="Rectangle-copy-67" fill="#ffffff" fill-rule="evenodd" stroke="none" d="M 959 435 L 969 435 L 969 425 L 959 425 Z"/>
    <path id="Rectangle-copy-111" fill="#ffffff" fill-rule="evenodd" stroke="none" d="M 381 936 L 391 936 L 391 926 L 381 926 Z"/>
    <path id="Rectangle-copy-109" fill="#ffffff" fill-rule="evenodd" stroke="none" d="M 458 871 L 468 871 L 468 861 L 458 861 Z"/>
    <path id="Rectangle-copy-108" fill="#ffffff" fill-rule="evenodd" stroke="none" d="M 496 839 L 506 839 L 506 829 L 496 829 Z"/>
    <path id="Rectangle-copy-107" fill="#ffffff" fill-rule="evenodd" stroke="none" d="M 535 807 L 545 807 L 545 797 L 535 797 Z"/>
    <path id="Rectangle-copy-125" fill="#ffffff" fill-rule="evenodd" stroke="none" d="M 400 920 L 410 920 L 410 910 L 400 910 Z"/>
    <path id="Rectangle-copy-124" fill="#ffffff" fill-rule="evenodd" stroke="none" d="M 439 888 L 449 888 L 449 878 L 439 878 Z"/>
    <path id="Rectangle-copy-134" fill="#ffffff" fill-rule="evenodd" stroke="none" d="M 439 923 L 449 923 L 449 913 L 439 913 Z"/>
    <path id="Rectangle-copy-132" fill="#ffffff" fill-rule="evenodd" stroke="none" d="M 419 939 L 429 939 L 429 929 L 419 929 Z"/>
    <path id="Rectangle-copy-135" fill="#ffffff" fill-rule="evenodd" stroke="none" d="M 458 924 L 468 924 L 468 914 L 458 914 Z"/>
    <path id="Rectangle-copy-133" fill="#ffffff" fill-rule="evenodd" stroke="none" d="M 438 940 L 448 940 L 448 930 L 438 930 Z"/>
    <path id="Rectangle-copy-130" fill="#ffffff" fill-rule="evenodd" stroke="none" d="M 458 907 L 468 907 L 468 897 L 458 897 Z"/>
    <path id="Rectangle-copy-123" fill="#ffffff" fill-rule="evenodd" stroke="none" d="M 477 855 L 487 855 L 487 845 L 477 845 Z"/>
    <path id="Rectangle-copy-122" fill="#ffffff" fill-rule="evenodd" stroke="none" d="M 515 823 L 525 823 L 525 813 L 515 813 Z"/>
    <path id="Rectangle-copy-131" fill="#ffffff" fill-rule="evenodd" stroke="none" d="M 420 920 L 430 920 L 430 910 L 420 910 Z"/>
    <path id="Rectangle-copy-129" fill="#ffffff" fill-rule="evenodd" stroke="none" d="M 496 855 L 506 855 L 506 845 L 496 845 Z"/>
    <path id="Rectangle-copy-128" fill="#ffffff" fill-rule="evenodd" stroke="none" d="M 439 904 L 449 904 L 449 894 L 439 894 Z"/>
    <path id="Rectangle-copy-127" fill="#ffffff" fill-rule="evenodd" stroke="none" d="M 477 871 L 487 871 L 487 861 L 477 861 Z"/>
    <path id="Rectangle-copy-126" fill="#ffffff" fill-rule="evenodd" stroke="none" d="M 515 839 L 525 839 L 525 829 L 515 829 Z"/>
    <path id="Rectangle-copy-121" fill="#ffffff" fill-rule="evenodd" stroke="none" d="M 554 791 L 564 791 L 564 781 L 554 781 Z"/>
    <path id="Rectangle-copy-106" fill="#ffffff" fill-rule="evenodd" stroke="none" d="M 573 775 L 583 775 L 583 765 L 573 765 Z"/>
    <path id="Rectangle-copy-105" fill="#ffffff" fill-rule="evenodd" stroke="none" d="M 612 743 L 622 743 L 622 733 L 612 733 Z"/>
    <path id="Rectangle-copy-104" fill="#ffffff" fill-rule="evenodd" stroke="none" d="M 650 710 L 660 710 L 660 700 L 650 700 Z"/>
    <path id="Rectangle-copy-103" fill="#ffffff" fill-rule="evenodd" stroke="none" d="M 688 678 L 698 678 L 698 668 L 688 668 Z"/>
    <path id="Rectangle-copy-102" fill="#ffffff" fill-rule="evenodd" stroke="none" d="M 727 646 L 737 646 L 737 636 L 727 636 Z"/>
    <path id="Rectangle-copy-101" fill="#ffffff" fill-rule="evenodd" stroke="none" d="M 765 614 L 775 614 L 775 604 L 765 604 Z"/>
    <path id="Rectangle-copy-100" fill="#ffffff" fill-rule="evenodd" stroke="none" d="M 804 582 L 814 582 L 814 572 L 804 572 Z"/>
    <path id="Rectangle-copy-99" fill="#ffffff" fill-rule="evenodd" stroke="none" d="M 842 549 L 852 549 L 852 539 L 842 539 Z"/>
    <path id="Rectangle-copy-98" fill="#ffffff" fill-rule="evenodd" stroke="none" d="M 881 517 L 891 517 L 891 507 L 881 507 Z"/>
    <path id="Rectangle-copy-97" fill="#ffffff" fill-rule="evenodd" stroke="none" d="M 919 485 L 929 485 L 929 475 L 919 475 Z"/>
    <path id="Rectangle-copy-96" fill="#ffffff" fill-rule="evenodd" stroke="none" d="M 959 451 L 969 451 L 969 441 L 959 441 Z"/>
    <path id="Rectangle-copy-61" fill="#ffffff" fill-rule="evenodd" stroke="none" d="M 959 417 L 969 417 L 969 407 L 959 407 Z"/>
    <path id="Rectangle-copy-120" fill="#ffffff" fill-rule="evenodd" stroke="none" d="M 400 951 L 410 951 L 410 941 L 400 941 Z"/>
    <path id="Rectangle-copy-119" fill="#ffffff" fill-rule="evenodd" stroke="none" d="M 477 886 L 487 886 L 487 876 L 477 876 Z"/>
    <path id="Rectangle-copy-118" fill="#ffffff" fill-rule="evenodd" stroke="none" d="M 554 822 L 564 822 L 564 812 L 554 812 Z"/>
    <path id="Rectangle-copy-117" fill="#ffffff" fill-rule="evenodd" stroke="none" d="M 631 758 L 641 758 L 641 748 L 631 748 Z"/>
    <path id="Rectangle-copy-116" fill="#ffffff" fill-rule="evenodd" stroke="none" d="M 707 693 L 717 693 L 717 683 L 707 683 Z"/>
    <path id="Rectangle-copy-115" fill="#ffffff" fill-rule="evenodd" stroke="none" d="M 784 629 L 794 629 L 794 619 L 784 619 Z"/>
    <path id="Rectangle-copy-114" fill="#ffffff" fill-rule="evenodd" stroke="none" d="M 861 564 L 871 564 L 871 554 L 861 554 Z"/>
    <path id="Rectangle-copy-113" fill="#ffffff" fill-rule="evenodd" stroke="none" d="M 938 500 L 948 500 L 948 490 L 938 490 Z"/>
</svg>
